<?xml version="1.0" encoding="UTF-8"?>
<svg version="1.1" viewBox="0 0 2048 2048" width="512" height="512" xmlns="http://www.w3.org/2000/svg">
<path transform="translate(760)" d="m0 0h36l15 4 16 8 12 11 10 12 14 20 26 36 9 12 9 11 12 13 12 11 11 8 14 8 15 6 9 2 15 1 31-1 32-3 62-9 37-5 12-1h36l28 3 49 8 229 39 23 5 16 6 16 8 16 11 13 12 8 9 10 15 9 19 23 63 20 55 2 8v8l-4 10-6 8-6 4-6 2 3 10 11 31 6 16 8-2h10l11 4 7 6 7 12 21 58 19 52 22 60 5 12 7 9 10 7 12 4 9 1 105 1 20 4 24 8 16 8 14 10 8 8 7 10 6 12 3 14v16l-3 15-7 17-14 21-11 13-7 8-14 15-16 15-12 12-8 7-90 90-7 8-7 7-7 8-9 9-7 8-7 7-7 8-9 9-9 11-12 14-8 10-11 14-12 17-10 14-15 27-6 14-3 10-1 7v108l-1 31-4 41-5 29-7 32-10 30-10 23-11 21-12 19-10 13-8 10-13 14-7 8-9 10-9 11-4 5h-2l-2 4-14 19-13 18-12 18-28 44-16 25-28 44-12 19-15 23-13 19-11 16-10 14-13 17-13 16-9 11-14 14-7 8-13 11-13 10-18 11-19 10-28 13-37 17-28 11-25 7-6 1h-21l-22-7-17-9-18-13-12-11-8-7-23-23-7-8-10-11-9-11-13-16-14-19-12-17-11-16-16-26-13-22-23-46-13-33-7-19-9-34-5-25-2-16-1-14v-19l4-101 4-83 3-10 4-6 8-7 10-4v-61l-8-2-9-6-6-7-4-14-6-44-6-26-5-15-8-17-11-14-9-10-7-8-10-13-14-21-10-17-10-19-13-28-15-31-8-16-9-16-9-12-11-13-17-17-11-9-13-9-16-8-12-4-14-2h-17l-21 3-27 7-31 11-30 11-27 9-35 8-20 3-37 3-39-3-28-6-18-5-31-13-15-8-23-15-9-7-14-12-10-9-7-6-9-11-10-11-9-11-13-17-29-44-11-19-8-16-13-24-8-17-12-29-11-30-10-36-6-28-4-31-1-18v-16l2-21 3-19 7-23 7-16 8-14 12-16 12-13 8-8 8-7 8-8 8-7 9-9 8-7 17-16 16-15 12-11h2v-2l8-7 13-12 12-11 10-10 1-2h2l2-4 11-12 10-14 7-11 9-19 4-18 2-25 4-19 5-15 8-16 6-10 12-16 14-15 10-8 16-13 18-11 22-12 27-11 18-6 31-7 26-3 58-5 26-4 38-8 77-19 48-10z" fill="#F29131"/>
<path transform="translate(760)" d="m0 0h36l15 4 16 8 12 11 10 12 14 20 26 36 9 12 9 11 12 13 12 11 11 8 14 8 15 6 9 2 15 1 31-1 32-3 62-9 37-5 12-1h36l28 3 49 8 229 39 23 5 16 6 16 8 16 11 13 12 8 9 10 15 9 19 23 63 20 55 2 8v8l-4 10-6 8-6 4-7 3h-12l-11-4-7-6-8-16-13-36-13-35-15-41-8-15-9-10-15-10-11-5-16-5-64-11-120-20-85-15-33-4h-35l-38 5-60 9-44 4h-50l-18-3-24-8-19-10-19-14-9-7-8-8-2-1v-2h-2v-2h-2v-2h-2v-2h-2v-2h-2l-7-8-14-17-14-19-13-18-15-22-11-14-4-3-9-1h-12l-26 4-101 23-58 13-37 6-62 5-20 3-24 6-29 11-22 12-12 8-14 11-13 13-8 11-10 19-3 11-3 32-4 20-7 19-10 19-17 25-9 10-9 11-42 42-8 7-13 12-10 9-13 12-15 14-13 12-7 7-8 7-16 15-9 9-10 14-8 18-5 19-2 18v24l3 26 6 29 6 23 10 29 5 11 5 13 12 28 11 20 7 14 12 21 26 39 10 13 24 28 8 8 22 18 19 12 15 8 26 10 26 6 28 3h18l31-4 27-6 36-12 55-20 26-7 20-4 17-2h27l20 3 20 6 16 8 11 6 14 10 13 10 12 11 4 3v2l4 2 10 10 9 11 8 10 10 15 9 15 11 23 10 21 7 14 11 23 12 23 14 21 7 9 13 15 12 14 7 10 10 19 8 20 8 30 5 30 4 29v8l-3 10-5 8-7 6-10 4-8 1-9-3-9-6-6-7-4-14-6-44-6-26-5-15-8-17-11-14-9-10-7-8-10-13-14-21-10-17-10-19-13-28-15-31-8-16-9-16-9-12-11-13-17-17-11-9-13-9-16-8-12-4-14-2h-17l-21 3-27 7-31 11-30 11-27 9-35 8-20 3-37 3-39-3-28-6-18-5-31-13-15-8-23-15-9-7-14-12-10-9-7-6-9-11-10-11-9-11-13-17-29-44-11-19-8-16-13-24-8-17-12-29-11-30-10-36-6-28-4-31-1-18v-16l2-21 3-19 7-23 7-16 8-14 12-16 12-13 8-8 8-7 8-8 8-7 9-9 8-7 17-16 16-15 12-11h2v-2l8-7 13-12 12-11 10-10 1-2h2l2-4 11-12 10-14 7-11 9-19 4-18 2-25 4-19 5-15 8-16 6-10 12-16 14-15 10-8 16-13 18-11 22-12 27-11 18-6 31-7 26-3 58-5 26-4 38-8 77-19 48-10z" fill="#020101"/>
<path transform="translate(1673,492)" d="m0 0h10l11 4 7 6 7 12 21 58 19 52 22 60 5 12 7 9 10 7 12 4 9 1 105 1 20 4 24 8 16 8 14 10 8 8 7 10 6 12 3 14v16l-3 15-7 17-14 21-11 13-7 8-14 15-16 15-12 12-8 7-90 90-7 8-7 7-7 8-9 9-7 8-7 7-7 8-9 9-9 11-12 14-8 10-11 14-12 17-10 14-15 27-6 14-3 10-1 7v108l-1 31-4 41-5 29-7 32-10 30-10 23-11 21-12 19-10 13-8 10-13 14-7 8-9 10-9 11-4 5h-2l-2 4-14 19-13 18-12 18-28 44-16 25-28 44-12 19-15 23-13 19-11 16-10 14-13 17-13 16-9 11-14 14-7 8-13 11-13 10-18 11-19 10-28 13-37 17-28 11-25 7-6 1h-21l-22-7-17-9-18-13-12-11-8-7-23-23-7-8-10-11-9-11-13-16-14-19-12-17-11-16-16-26-13-22-23-46-13-33-7-19-9-34-5-25-2-16-1-14v-19l4-101 4-83 3-10 4-6 8-7 11-5 14 2 8 4 7 7 5 11v28l-6 139v47l4 27 5 22 8 26 10 26 8 16 12 25 12 22 12 19 15 24 12 17 10 13 15 20 12 14 3 3v2h2l7 8 15 16 14 13 11 9 14 9 10 4h9l15-4 24-10 35-16 28-13 16-8 15-10 11-9 12-11 8-8 7-8 11-13 8-11 14-19 12-16 19-29 11-17 16-25 12-19 15-24 12-19 15-24 14-22 10-14 13-18 12-17 10-13 12-14 7-8 16-17 12-14 13-18 9-15 8-16 7-16 9-28 5-19 6-37 3-34 1-49-1-80 3-21 4-15 9-22 15-28 16-24 13-18 12-15 9-12 9-10 9-11 12-13 7-8 7-7 7-8 16-17 8-9 80-80 6-5 6-7 6-5 6-7 8-7 18-18 7-8 13-14 7-8 11-14 5-10v-7l-7-6-13-6-22-6-6-1-104-1-14-2-17-5-17-9-13-10-8-8-7-10-12-23-14-38-21-58-10-26-7-20-11-30-3-11v-12l4-9 5-7 6-4z" fill="#020101"/>
<path transform="translate(1889,1391)" d="m0 0 16 1 17 4 17 7 14 9 10 9 9 10 8 14 5 12 3 14 1 8v17l-3 21-4 16-7 19-3 13v9l5 29 10 45 4 22v9l-4 11-7 8-6 4-14 3-3 23-4 15-8 20-1 4 4 2 6 7 4 11v8l-4 11-7 9-21 21-14 11-13 10-15 9-15 7-16 5-5 1h-26l-16-5-18-10-14-11-10-9-13-12-9-9-7-8-8-8-7-8-13-16-12-19-8-18-4-13-2-16 2-17 6-17 6-10 10-13 8-14 6-19 11-48 7-26 8-23 9-19 8-11 13-17 10-13 22-28 12-14 12-12 18-13 14-7 15-4z" fill="#030101"/>
<path transform="translate(699,892)" d="m0 0 23 1 18 3 19 7 11 6 14 10 11 8v2l4 2 7 7 2 1v2l4 2v2l4 2v2l4 2 7 8 12 15 9 14 8 13 11 23 8 17 13 29 10 21 12 22 8 13 6 9 8 10 4 6v2l3 1 10 13 11 15v3h2l8 15 8 22 5 21 5 30 4 40 1 25 1 38v39l-1 35-1 26-1 32-2 36-1 39v61l1 4v11l1 8 4 25 4 15 10 30 6 16 11 26 10 21 10 19 12 22 11 17 4 7 7 11 8 12 7 10 8 12 7 8 3 4v3l4 2 11 14 13 15 7 8 5 5 6 5 3 6v3l-13 4-4 1h-9l-10-4-14-9-15-13-13-12-7-7-7-8-5-5v-2h-2l-7-8-10-12-24-32-12-17-12-19-15-24-9-16-22-46-5-11-8-22-8-27-5-26-2-16v-47l6-139v-28l-6-12-8-7-9-3-10-2v-59l14-4 9-6 4-5 4-9 1-5v-8l-7-49-6-26-5-17-9-21-9-17-8-10-13-15-12-14-12-17-9-15-14-27-10-21-11-23-8-17-10-19-11-17-10-14-10-11-7-8-7-6v-2l-4-2-8-8-17-13-11-8-17-10-16-7-3-2h2l-3-6 1-2h19z" fill="#E27D21"/>
<path transform="translate(1885,1452)" d="m0 0h13l14 5 8 6 6 8 3 9v16l-3 16-11 33-3 19v11l3 23 18 84 4 9 7 8 12 5 3 1v10l-3 17-5 17-7 16-15-3-9 1-10 5-16 15-8 7-10 9-14 10-14 8-8 3h-7l-14-7-13-11-34-34v-2h-2l-7-8-10-13-7-12-4-12v-10l5-8 12-17 8-16 5-14 10-36 10-41 6-21 7-16 12-16 9-10 14-19 11-14 10-13 11-10 10-7z" fill="#F29131"/>
<path transform="translate(165,451)" d="m0 0 2 1-12 12h2l2 5-1 5-2 16 1 22 2 21 4 26 2 10 2 12 5 18 7 23 8 22 6 16 3 7 9 20 8 17 15 27 12 21 12 20 10 15 5 8 7 10 12 17 10 12 4 5v2h2l8 10 8 8v2h2v2h2v2l4 2 7 6v2l4 2 7 6 18 12v2l4 1 7 4 7 5 17 8 13 6 12 4 7 2 8 3 15 2 7 5-3 2-24 6-24 4-17 2h-18l-28-3-26-6-21-8-17-8-22-14-13-11-11-9-10-10-9-11-10-11-10-13-26-39-10-17-10-18-15-30-12-29-5-11-9-25-7-23-6-27-4-26-1-11v-24l2-18 5-19 8-18 8-11 9-10 12-12 8-7 16-15z" fill="#E27D21"/>
<path transform="translate(1885,1452)" d="m0 0h13l14 5 8 6 6 8 3 9v16l-3 16-11 33-3 19v11l3 23 3 14v6l-2-3-4-18-2-16v-22l2-14 8-24 3-8 3-13v-19l-2-9-1-2-1 2h-3v2l-4 2-4 6h-2l-2 6-3 1-4 8-3 3-6 9-5 5-5 6-3 5-5 9-4 8-3 10-5 17-4 17-4 15-7 28-2 6-3 10-6 16h-2l-1 6-6 9-3 6-2 1-2 4h-2l-2 6-3 7h-2l-2 20 4 16 4 10 7 11 3 5 7 9v2h2l1 3 7 6 4 6 4 3v2l4 2 5 4 4 4h5l-4 4-15 9-10 4h-7l-14-7-13-11-34-34v-2h-2l-7-8-10-13-7-12-4-12v-10l5-8 12-17 8-16 5-14 10-36 10-41 6-21 7-16 12-16 9-10 14-19 11-14 10-13 11-10 10-7z" fill="#E27D21"/>
<path transform="translate(1749,757)" d="m0 0 5 2 10 6 11 5 18 5 10 1 104 1 21 5 12 4 4 3-5-1-21-6-6-1-35 1h-53l-13-1-9-2-14-2-19-7-15-8z" fill="#E27D21"/>
<path transform="translate(896,1358)" d="m0 0h1l1 52 1 3 3 1h-6z" fill="#F29131"/>
<path transform="translate(928,1333)" d="m0 0h1v6l-7 8-5 2 2-4 4-5 3-6z" fill="#EE8C2D"/>
<path transform="translate(791,1019)" d="m0 0h2l4 6 3 7 2 5v3h-2l-9-19z" fill="#ED8A2C"/>
</svg>
